<?xml version="1.0" encoding="utf-8"?>
<!-- Generator: Adobe Illustrator 25.2.1, SVG Export Plug-In . SVG Version: 6.00 Build 0)  -->
<svg version="1.1" id="Camada_1" xmlns="http://www.w3.org/2000/svg" xmlns:xlink="http://www.w3.org/1999/xlink" x="0px" y="0px"
	 viewBox="0 0 1920 1080" style="enable-background:new 0 0 1920 1080;" xml:space="preserve">
<style type="text/css">
	.st0{fill:#C6955A;}
	.st1{fill:#FFAC50;}
	.st2{fill:none;}
	.st3{fill:#808080;}
	.st4{fill:#5C5C5C;}
	.st5{fill:#666666;}
</style>
<g>
	<g>
		<path d="M719.12,794.7h9.78l43.59,97.87h-14.24l-12.96-28.84h-41.47l-12.15,28.84h-14.3L719.12,794.7z M739.57,851.33
			l-15.69-35.25l-14.54,35.25H739.57z"/>
	</g>
	<g>
		<path d="M806.89,887.96v-13.65c3.57,2.51,7.22,4.54,10.96,6.1c3.73,1.55,6.88,2.33,9.43,2.33c2.64,0,4.92-0.65,6.82-1.95
			c1.9-1.3,2.85-2.86,2.85-4.67c0-1.86-0.61-3.4-1.84-4.63c-1.23-1.23-3.89-3.01-7.97-5.33c-8.17-4.55-13.51-8.44-16.04-11.67
			c-2.53-3.23-3.79-6.75-3.79-10.55c0-4.92,1.91-8.94,5.74-12.05c3.83-3.11,8.76-4.67,14.79-4.67c6.26,0,12.69,1.77,19.27,5.29
			v12.54c-7.52-4.55-13.66-6.83-18.44-6.83c-2.46,0-4.44,0.52-5.95,1.57c-1.51,1.05-2.26,2.43-2.26,4.15c0,1.49,0.68,2.91,2.05,4.25
			c1.37,1.35,3.76,2.97,7.2,4.88l4.53,2.58c10.67,6.04,16.01,12.72,16.01,20.05c0,5.25-2.05,9.55-6.16,12.92
			c-4.1,3.37-9.38,5.05-15.83,5.05c-3.8,0-7.19-0.41-10.16-1.22C815.12,891.64,811.39,890.15,806.89,887.96z"/>
	</g>
	<g>
		<path d="M892.01,801.52c2.09,0,3.87,0.72,5.36,2.16c1.49,1.44,2.23,3.2,2.23,5.29c0,2.04-0.74,3.81-2.23,5.29
			c-1.49,1.49-3.27,2.23-5.36,2.23c-1.95,0-3.66-0.75-5.15-2.26c-1.49-1.51-2.23-3.26-2.23-5.26c0-1.95,0.74-3.68,2.23-5.19
			C888.35,802.28,890.06,801.52,892.01,801.52z M885.75,828.48h12.66v64.08h-12.66V828.48z"/>
	</g>
	<g>
		<path d="M1004.22,847.22v46.53h-12.73v-35.66c0-7.1-0.95-12.06-2.85-14.87c-1.9-2.81-5.22-4.21-9.95-4.21
			c-2.64,0-5.07,0.6-7.27,1.81c-2.21,1.21-4.72,3.34-7.55,6.41v46.53H951.2v-64.08h12.66v8.43c6.45-6.45,12.76-9.68,18.93-9.68
			c8.12,0,14.4,3.86,18.86,11.56c6.77-7.8,13.85-11.7,21.22-11.7c6.22,0,11.33,2.27,15.34,6.83c4.01,4.55,6.02,11.49,6.02,20.83
			v37.82h-12.66v-37.96c0-5.34-1.09-9.43-3.27-12.26c-2.18-2.83-5.31-4.25-9.39-4.25C1013.66,839.28,1008.77,841.92,1004.22,847.22z
			"/>
	</g>
	<g>
		<path d="M1130.13,828.34c9.74,0,17.84,3.15,24.29,9.44c6.45,6.29,9.67,14.2,9.67,23.72c0,9.24-3.27,16.91-9.81,23.02
			c-6.54,6.11-14.78,9.16-24.7,9.16c-9.6,0-17.63-3.1-24.08-9.3c-6.45-6.2-9.67-13.94-9.67-23.23c0-9.38,3.26-17.19,9.78-23.44
			C1112.12,831.46,1120.3,828.34,1130.13,828.34z M1129.44,839.76c-6.08,0-11.06,2-14.96,5.99c-3.9,3.99-5.85,9.08-5.85,15.25
			c0,6.13,1.99,11.13,5.98,15.01c3.99,3.88,9.12,5.82,15.38,5.82c6.22,0,11.31-1.96,15.27-5.88c3.97-3.92,5.95-8.95,5.95-15.08
			c0-6.08-2.06-11.12-6.19-15.12C1140.89,841.76,1135.7,839.76,1129.44,839.76z"/>
	</g>
	<g>
		<path d="M1246.27,828.41H1260l-28.28,65.2h-4.29l-28.95-65.2h13.86l17.28,39.43L1246.27,828.41z"/>
	</g>
	<g>
		<rect x="353.55" y="928.91" width="287.47" height="0.71"/>
	</g>
	<g>
		<path d="M693.94,937.14c-0.94,0.47-2.83,0.94-5.25,0.94c-5.6,0-9.81-3.54-9.81-10.05c0-6.22,4.21-10.43,10.37-10.43
			c2.48,0,4.04,0.53,4.71,0.89l-0.62,2.09c-0.97-0.47-2.36-0.83-4.01-0.83c-4.65,0-7.75,2.98-7.75,8.19c0,4.86,2.8,7.99,7.63,7.99
			c1.56,0,3.15-0.32,4.18-0.83L693.94,937.14z"/>
	</g>
	<g>
		<path d="M735.77,930.54c0,5.27-3.65,7.57-7.1,7.57c-3.86,0-6.84-2.83-6.84-7.34c0-4.77,3.12-7.57,7.07-7.57
			C733,923.2,735.77,926.17,735.77,930.54z M724.46,930.68c0,3.12,1.8,5.48,4.33,5.48c2.48,0,4.33-2.33,4.33-5.54
			c0-2.42-1.21-5.48-4.27-5.48C725.78,925.14,724.46,927.97,724.46,930.68z"/>
	</g>
	<g>
		<path d="M763.75,927.38c0-1.47-0.03-2.68-0.12-3.86h2.3l0.15,2.36h0.06c0.71-1.36,2.36-2.68,4.71-2.68c1.97,0,5.04,1.18,5.04,6.07
			v8.52h-2.59v-8.22c0-2.3-0.86-4.22-3.3-4.22c-1.71,0-3.04,1.21-3.48,2.65c-0.12,0.32-0.18,0.77-0.18,1.21v8.58h-2.59V927.38z"/>
	</g>
	<g>
		<path d="M808.49,919.43v4.1h3.71v1.97h-3.71v7.69c0,1.77,0.5,2.77,1.95,2.77c0.68,0,1.18-0.09,1.5-0.18l0.12,1.94
			c-0.5,0.21-1.3,0.36-2.3,0.36c-1.21,0-2.18-0.38-2.8-1.09c-0.74-0.77-1-2.03-1-3.71v-7.78h-2.21v-1.97h2.21v-3.42L808.49,919.43z"
			/>
	</g>
	<g>
		<path d="M840.19,927.97c0-1.68-0.03-3.12-0.12-4.45h2.27l0.09,2.8h0.12c0.65-1.92,2.21-3.12,3.95-3.12c0.3,0,0.5,0.03,0.74,0.09
			v2.45c-0.27-0.06-0.53-0.09-0.89-0.09c-1.83,0-3.12,1.38-3.48,3.33c-0.06,0.35-0.12,0.77-0.12,1.21v7.6h-2.56V927.97z"/>
	</g>
	<g>
		<path d="M889.03,930.54c0,5.27-3.65,7.57-7.1,7.57c-3.86,0-6.84-2.83-6.84-7.34c0-4.77,3.12-7.57,7.07-7.57
			C886.26,923.2,889.03,926.17,889.03,930.54z M877.71,930.68c0,3.12,1.8,5.48,4.33,5.48c2.48,0,4.33-2.33,4.33-5.54
			c0-2.42-1.21-5.48-4.27-5.48C879.04,925.14,877.71,927.97,877.71,930.68z"/>
	</g>
	<g>
		<path d="M916.89,916.86h2.59v20.92h-2.59V916.86z"/>
	</g>
	<g>
		<path d="M945.64,929.75c0.06,3.51,2.3,4.95,4.89,4.95c1.86,0,2.98-0.32,3.95-0.74l0.44,1.85c-0.91,0.41-2.48,0.89-4.74,0.89
			c-4.39,0-7.01-2.89-7.01-7.19s2.53-7.69,6.69-7.69c4.65,0,5.89,4.1,5.89,6.72c0,0.53-0.06,0.94-0.09,1.21H945.64z M953.24,927.9
			c0.03-1.65-0.68-4.21-3.59-4.21c-2.62,0-3.77,2.42-3.98,4.21H953.24z"/>
	</g>
	<g>
		<path d="M1028.34,927.38c0-1.47-0.03-2.68-0.12-3.86h2.27l0.12,2.3h0.09c0.8-1.36,2.12-2.62,4.48-2.62c1.94,0,3.42,1.18,4.04,2.86
			h0.06c0.44-0.8,1-1.41,1.59-1.86c0.85-0.65,1.8-1,3.15-1c1.89,0,4.69,1.24,4.69,6.19v8.4h-2.53v-8.07c0-2.74-1-4.39-3.1-4.39
			c-1.47,0-2.62,1.09-3.06,2.36c-0.12,0.35-0.21,0.82-0.21,1.3v8.81h-2.53v-8.55c0-2.27-1-3.92-2.98-3.92c-1.62,0-2.8,1.3-3.21,2.59
			c-0.15,0.38-0.21,0.83-0.21,1.27v8.6h-2.53V927.38z"/>
	</g>
	<g>
		<path d="M1085.58,937.79l-0.21-1.8h-0.09c-0.79,1.12-2.33,2.12-4.36,2.12c-2.89,0-4.36-2.03-4.36-4.1c0-3.45,3.06-5.33,8.58-5.31
			v-0.29c0-1.18-0.32-3.3-3.24-3.3c-1.33,0-2.71,0.41-3.71,1.06l-0.59-1.71c1.18-0.77,2.89-1.27,4.68-1.27
			c4.36,0,5.42,2.98,5.42,5.83v5.33c0,1.24,0.06,2.45,0.24,3.42H1085.58z M1085.2,930.51c-2.83-0.06-6.04,0.44-6.04,3.21
			c0,1.68,1.12,2.48,2.44,2.48c1.86,0,3.04-1.18,3.45-2.39c0.09-0.27,0.15-0.56,0.15-0.83V930.51z"/>
	</g>
	<g>
		<path d="M1115.92,927.38c0-1.47-0.03-2.68-0.12-3.86h2.3l0.15,2.36h0.06c0.71-1.36,2.36-2.68,4.71-2.68
			c1.97,0,5.04,1.18,5.04,6.07v8.52h-2.59v-8.22c0-2.3-0.86-4.22-3.3-4.22c-1.71,0-3.04,1.21-3.48,2.65
			c-0.12,0.32-0.18,0.77-0.18,1.21v8.58h-2.59V927.38z"/>
	</g>
	<g>
		<path d="M1158.39,931.12c0.06,3.51,2.3,4.95,4.89,4.95c1.86,0,2.98-0.32,3.95-0.74l0.44,1.85c-0.91,0.41-2.48,0.89-4.74,0.89
			c-4.39,0-7.01-2.89-7.01-7.19s2.53-7.69,6.69-7.69c4.65,0,5.89,4.1,5.89,6.72c0,0.53-0.06,0.94-0.09,1.21H1158.39z
			 M1165.99,929.27c0.03-1.65-0.68-4.21-3.59-4.21c-2.62,0-3.77,2.42-3.98,4.21H1165.99z"/>
	</g>
	<g>
		<path d="M1196.36,941.91c1.18-0.09,2.21-0.41,2.83-1.09c0.71-0.83,0.97-1.95,0.97-5.36v-11.93h2.59v12.94
			c0,2.77-0.44,4.57-1.71,5.86c-1.15,1.15-3.04,1.62-4.42,1.62L1196.36,941.91z M1203.05,919.52c0.03,0.85-0.59,1.59-1.62,1.59
			c-0.97,0-1.59-0.74-1.59-1.59c0-0.91,0.68-1.62,1.65-1.62C1202.43,917.89,1203.05,918.6,1203.05,919.52z"/>
	</g>
	<g>
		<path d="M1244.85,930.54c0,5.27-3.65,7.57-7.1,7.57c-3.86,0-6.84-2.83-6.84-7.34c0-4.77,3.12-7.57,7.07-7.57
			C1242.07,923.2,1244.85,926.17,1244.85,930.54z M1233.53,930.68c0,3.12,1.8,5.48,4.33,5.48c2.48,0,4.33-2.33,4.33-5.54
			c0-2.42-1.21-5.48-4.27-5.48C1234.85,925.14,1233.53,927.97,1233.53,930.68z"/>
	</g>
	<g>
		<circle cx="991.44" cy="930.65" r="4.37"/>
	</g>
	<g>
		<path class="st0" d="M986.78,282.33c-42.06,0.97-84.17-0.87-126.03-5.02c-3.56,1.88-7.12,3.75-10.68,5.65
			c-7.08,3.73-14.1,7.47-21.18,11.16c-6,3.19-11.99,6.34-17.99,9.53c2.51,2.46,5.5,4.52,9.04,5.65c7.57,2.41,17.94,3.69,38.48,3.34
			c3.73-0.05,13.42-0.29,26.44-2.16c6.63-0.93,4.67-0.93,30.07-6.14c0,0,25.41-5.21,37.05-8.35c2.51-0.64,5.11-1.38,5.11-1.38
			c3.59-0.98,6.14-1.77,6.44-1.87c14.55-4.23,44.37-0.69,52.63,0.44c1.72-0.84,8.45-3.34,9.14-3.73c0.2-0.1,0.39-0.25,0.59-0.34
			l-29.01-7.09C993.53,282.14,990.17,282.25,986.78,282.33z"/>
	</g>
	<g>
		<path class="st0" d="M1025.94,289.09c-0.05,0-0.05,0-0.05,0l3.93,0.98C1028.54,289.73,1027.22,289.39,1025.94,289.09z"/>
	</g>
	<g>
		<path class="st1" d="M1225.25,515.99c-7.32-3.69-15.48-5.26-23.54-6.73c-7.96-1.52-15.92-3-23.93-4.47
			c-14.15-2.65-29.29-5.8-39.31-16.17c-3.88-3.98-6.78-8.8-9.44-13.71c-1.77-3.39-3.49-6.78-5.11-10.27
			c-11.74-25.36-18.28-53.81-36.66-74.84c-2.83-3.26-5.49-6.47-8.19-9.56c-6.47-7.39-2.8-19.02,6.72-21.44l0,0
			c0.74-2.75,5.65-1.92,10.91-5.45c4.42-3,16.07-10.76,18.58-24.03c2.7-14.01-5.7-28.4-16.36-34.99c-4.13-2.56-8.99-4.23-31.7-4.37
			c-10.86-0.1-20.44,0.15-28.4,0.59l-8.8,0.49l-0.2-0.05l-3.88-0.98c-0.05,0-0.05,0-0.05,0c-0.2,0.1-0.39,0.25-0.59,0.34
			c-0.69,0.39-1.23,0.93-1.87,1.38c-0.54,0.15-45.36-2.31-59.9,1.92c-0.3,0.1-2.85,0.88-6.44,1.87c0,0-2.6,0.74-5.11,1.38
			c-11.65,3.14-37.05,8.35-37.05,8.35c-25.41,5.21-23.44,5.21-30.07,6.14c-13.02,1.87-22.7,2.11-26.44,2.16
			c-20.54,0.34-30.91-0.93-38.48-3.34c-1.42-0.45-2.74-1.05-3.99-1.77c-3.85-2.21-8.65-1.99-12.58,0.08
			c-44.77,23.6-89.58,47.24-134.34,70.88c-7.96,4.18-12.92,12.48-12.87,21.47c0.1,21.28,1.38,44.57,4.47,69.39
			c2.47,19.54,5.77,37.7,9.48,54.36c2.29,10.3,12.73,18.77,23.27,18.85l150.41,1.12c1.87,0.01,3.71,0.41,5.42,1.19
			c5.51,2.53,12.06,6.86,15.8,14.11c5.21,10.07,4.86,18.67,6.19,24.03c3.64,14.74,0.59,38.53-7.03,68.99
			c-0.15,0.59,0.05,1.18,0.54,1.52c89.98,64.13,199.07,76.61,275.73,28.94c54.36-33.78,87.19-94.64,99.81-145.54
			c0.74-2.98,0.51-6.17-0.94-8.87C1236.28,523.33,1231.03,518.89,1225.25,515.99z M714.04,430.48
			c-9.43,12.14-26.73,13.96-28.26,9.98c-2.26-5.7,29.68-26.73,34.99-21.82C723.23,420.9,717.43,426.11,714.04,430.48z"/>
	</g>
	<g>
		<path class="st0" d="M1241.22,533.73c-2.16-7.91-8.65-14.05-15.97-17.74c-7.32-3.69-15.48-5.26-23.54-6.73
			c-7.96-1.52-15.92-3-23.93-4.47c-14.15-2.65-29.29-5.8-39.31-16.17c-3.88-3.98-6.78-8.8-9.44-13.71
			c-1.77-3.39-3.49-6.78-5.11-10.27c-11.74-25.36-18.28-53.81-36.66-74.84c-8.06-9.29-14.79-18.23-25.01-25.01l23.83-6.57
			c-1.38,5.16,12.04,13.4,16.07,15.91c36.27,21.62,35.77,58.53,65.6,76.46c28.85,17.35,51.35-7.91,66.64,4.37
			C1247.32,465.27,1249.78,496.53,1241.22,533.73z"/>
	</g>
	<g>
		<path class="st2" d="M1029.82,299.8l-3.93-0.98c0,0,0,0,0.05,0C1027.22,299.11,1028.54,299.45,1029.82,299.8z"/>
	</g>
	<g>
		<path class="st2" d="M1015.82,326.19v-2.75l3.83-7.57c0-0.05,0.05-0.1,0.05-0.15l5.8-8.89c0.1-0.2,0.29-0.39,0.49-0.49l12.83-6.98
			"/>
	</g>
	<g>
		<path class="st2" d="M1055.72,370.66l5.55,2.8c0.29,0.2,0.64,0.2,0.98,0.15"/>
	</g>
	<g>
		<path class="st2" d="M1178.68,326.18"/>
	</g>
	<g>
		<path class="st3" d="M1038.91,286.11c-11.01-1.13-39.66-3.93-39.66-3.93c-0.57-0.07-1.15-0.14-1.72-0.2
			c-3.56,0.15-7.14,0.26-10.75,0.35c-44.2,1.02-88.44-1.04-132.41-5.64c-1.23-0.13-12.67-0.45-19.54,0.38
			c-8.35,1.03-15.87,2.7-18.08,3.24c-7.08,1.67-14.6,7.08-16.17,10.12c-0.54,0.98-1.67,3.19-1.03,5.41
			c0.69,2.21,1.62,4.37,1.92,5.01c1.82,4.42,4.87,10.42,9.44,14.94c2.51,2.46,5.5,4.52,9.04,5.65c7.57,2.41,17.94,3.69,38.48,3.34
			c3.73-0.05,13.42-0.29,26.44-2.16c6.63-0.93,4.67-0.93,30.07-6.14c0,0,25.41-5.21,37.05-8.35c2.51-0.64,5.11-1.38,5.11-1.38
			c3.59-0.98,6.14-1.77,6.44-1.87c10.46-3.04,28.75-2.06,41.3-0.85c0.79-0.88,1.66-1.68,2.68-2.29c7.86-4.73,17.66-7.58,27.04-9.17
			c0.73-0.39,1.5-0.7,2.34-0.9c3.01-0.76,6.17-1.06,9.3-1.12c0.57-0.12,1.17-0.2,1.71-0.27c0.61-0.08,1.31-0.21,1.96-0.25
			c0.33-0.02,0.66,0,1,0c0.34,0.01,0.68,0.03,1.02,0.04c0.65-0.11,1.31-0.2,2-0.18h1.23c0.36,0,0.69,0.11,1.04,0.14
			c0.42,0,0.83,0,1.25,0.04c0.09,0.01,0.19,0.02,0.28,0.04c0.24-0.03,0.47-0.06,0.71-0.1c-5.41-1.44-10.54-2.53-14.22-3.17
			C1041.56,286.4,1039.65,286.16,1038.91,286.11z"/>
	</g>
	<g>
		<path class="st4" d="M1054.99,169.06c-3.1,23.29-5.6,41.48-7.86,57.05c-0.84,5.6-1.82,12.38-2.36,21.08
			c-1.52,0.69-2.95,1.38-4.47,2.01c-7.76,3.24-16.07,5.95-24.47,7.17c9.19-15.33,9.48-31.6,11.3-49.39
			c1.82-17.79,5.01-33.81,4.23-51.7C1042.95,161.44,1054.8,168.86,1054.99,169.06z"/>
	</g>
	<g>
		<path class="st3" d="M1027.13,206.99c-1.82,17.79-2.11,34.05-11.3,49.39c-0.25,0.05-0.49,0.05-0.74,0.1
			c-10.03,1.38-20.54,1.13-30.66,1.33c-41.23,0.84-82.46-1.03-123.49-5.11c4.57-29.44-1.67-48.4,0.88-92.93
			c0.15-2.41,0.25-4.37,0.34-5.41c27.27-11.25,89.83-31.94,156.32-5.26c3.78,1.52,8.3,3.73,12.87,6.19
			C1032.14,173.18,1028.95,189.2,1027.13,206.99z"/>
	</g>
	<g>
		<path class="st3" d="M1044.65,273.72c-18.77,7.18-37.91,8.15-57.87,8.61c-32.4,0.75-64.83-0.17-97.16-2.52
			c28.94,3.04,57.88,6.07,86.83,9.11c0.79,0.07,1.57,0.15,2.36,0.25c0.75,0.07,1.49,0.15,2.24,0.23c2.29,0.23,4.57,0.48,6.87,0.71
			c0.55,0.05,1.08,0.11,1.59,0.16c0.05,0.01,0.09,0.01,0.14,0.01c0.5,0.05,0.99,0.11,1.44,0.15c0.95,0.1,1.8,0.19,2.54,0.27
			c1.13,0.12,2.27,0.23,3.4,0.36c4.95,0.52,9.89,1.04,14.84,1.55c2.25,0.18,4.73,0.4,7.51,0.67c1.56-1.65,3.62-3.07,5.65-3.48
			c6.7-1.32,13.54-2.09,20.38-2.29c-0.27-3.9-0.47-7.43-0.61-10.43C1044.74,275.97,1044.7,274.84,1044.65,273.72z"/>
	</g>
	<g>
		<path class="st2" d="M993.3,279.09c0.95,0.1,1.8,0.19,2.54,0.27C994.99,279.27,994.15,279.19,993.3,279.09z"/>
	</g>
	<g>
		<path class="st2" d="M932.99,283.53c-41.14,10.79-80.46,20.62-114.85,5.87c4.91-9.83,14.74-19.66,28.96-13.2"/>
	</g>
	<g>
		<path class="st2" d="M849.99,285.28"/>
	</g>
	<g>
		<path class="st2" d="M848.15,297.6c2.13-5.8,3.98-11.71,5.55-17.69"/>
	</g>
	<g>
		<path class="st5" d="M849.98,372.13c0.68-3.42,1.87-5.06,3.22-6.18c0.68-0.53,1.42-0.84,2.2-1.04l2.32-0.64
			c3.1-0.79,6.23-1.51,9.42-2.03c3.18-0.53,6.4-0.92,9.69-1.09c3.29-0.16,6.61-0.2,10.08,0.28l0.03,0.11
			c-2.68,2.25-5.52,3.99-8.39,5.61c-2.87,1.6-5.81,2.99-8.78,4.23c-2.97,1.26-6,2.32-9.05,3.3l-2.3,0.7
			c-0.76,0.25-1.56,0.38-2.42,0.29c-1.73-0.23-3.62-0.98-6.02-3.52L849.98,372.13z"/>
	</g>
	<g>
		<line class="st2" x1="1031.36" y1="155.3" x2="1031.36" y2="155.25"/>
	</g>
	<g>
		<path class="st2" d="M886.93,145.58c-4.23,7.86-7.33,15.78-7.79,24.69c-1.1,21.59-0.94,43.24,0.47,64.8
			c0.5,7.54-2.15,16.84,4.84,19.72"/>
	</g>
	<g>
		<rect x="1278.99" y="928.91" width="287.47" height="0.71"/>
	</g>
</g>
</svg>
